<?xml version="1.0" encoding="utf-8"?>
<!-- Svg Vector Icons : http://www.onlinewebfonts.com/icon -->
<!DOCTYPE svg PUBLIC "-//W3C//DTD SVG 1.1//EN" "http://www.w3.org/Graphics/SVG/1.1/DTD/svg11.dtd">
<svg version="1.1" xmlns="http://www.w3.org/2000/svg" xmlns:xlink="http://www.w3.org/1999/xlink" x="0px" y="0px" viewBox="0 0 256 256" enable-background="new 0 0 256 256" xml:space="preserve">
<metadata> Svg Vector Icons : http://www.onlinewebfonts.com/icon </metadata>
<g><g><path fill="#000000" d="M128,10C62.8,10,10,62.8,10,128c0,65.2,52.8,118,118,118c65.2,0,118-52.8,118-118C246,62.8,193.2,10,128,10z M128,236.9c-60.2,0-108.9-48.8-108.9-108.9C19.1,67.8,67.8,19.1,128,19.1c60.2,0,108.9,48.8,108.9,108.9C236.9,188.2,188.2,236.9,128,236.9z"/><path fill="#000000" d="M189.9,113.7c0-13.7-11.4-24.9-25.6-24.9c-3.2,0-6.2,0.6-9,1.6c-4.7-9-11.3-16.9-27.7-16.9c-14.1,0-19.4,9.7-25.5,18.1c-3.5-1.7-7.4-2.7-11.6-2.7C76.4,88.9,65,100,65,113.7c0,11.9,8.6,21.9,20.1,24.3v47.5h0.2h5.8h73.5h6h0.1v-5.3h-0.1v-42.3C181.8,135.2,189.9,125.4,189.9,113.7z M91.1,180.2V174h73.5v6.2H91.1z M164.7,171.3H146v-24.4h-2.7v24.4h-14.6v-24.4h-2.7v24.4h-13.8v-24.4h-2.7v24.4H91.2v-35.5H91l0.5-3.2c-10.3,0-18.7-8.1-18.7-18.2c0-10,8.4-18.2,18.7-18.2c5.5,0,10.5,2.3,13.9,6l4.2-5.2c-0.6-0.6-1.2-1.3-1.9-1.8l0,0c4.6-6.2,10.2-15.3,20.7-15.2c16.3,0.2,20.3,11.6,24.3,20l6-3c0,0,0-0.1-0.1-0.1c2-0.7,4.1-1.1,6.3-1.1c10.2,0,18.5,8.1,18.5,18c0,10-8.5,18-18.8,18l-0.1,6.6c0,0,0,0,0,0L164.7,171.3L164.7,171.3z"/></g></g>
</svg>